<?xml version="1.0" encoding="utf-8"?>
<!-- Generator: Adobe Illustrator 25.2.3, SVG Export Plug-In . SVG Version: 6.00 Build 0)  -->
<svg version="1.1" id="Layer_1" xmlns="http://www.w3.org/2000/svg" xmlns:xlink="http://www.w3.org/1999/xlink" x="0px" y="0px"
	 viewBox="0 0 145 20" style="enable-background:new 0 0 145 20;" xml:space="preserve">
<style type="text/css">
	.st0{fill:#F18A00;}
	.st1{fill:#00263E;}
</style>
<g>
	<path class="st0" d="M34.6,0.4c0,0.6,0,3.2,0,3.9c-0.9,0-2.8,0-3.4,0c-1.1,0-1.8,0.4-1.9,2.2c-0.1,1.8-0.6,3.3-1.6,3.5
		c0.6,0.5,1.6,1.4,1.6,3.3c0,1.7,0.8,2.4,1.9,2.4c0.8,0,2.8,0,3.4,0c0,0,0,3.2,0,3.8c-0.8,0-4.9,0-6,0c-2.5-0.1-4-1.9-4.1-3.8
		c-0.1-1.7,0-4.8-1-5.2c0-0.4,0-0.8,0-1.1c0.4-0.3,0.8-0.9,0.9-2.4c0-1.5,0.1-2.3,0.1-2.8c0-1.1,1.1-3.9,4.2-3.9S33.8,0.4,34.6,0.4z
		"/>
	<path class="st0" d="M37,0.4c0,0.6,0,3.2,0,3.9c0.9,0,2.8,0,3.4,0c1.1,0,1.8,0.4,1.9,2.2s0.6,3.3,1.6,3.5c-0.6,0.5-1.6,1.4-1.6,3.3
		c0,1.7-0.8,2.4-1.9,2.4c-0.8,0-2.8,0-3.4,0c0,0,0,3.2,0,3.8c0.8,0,4.9,0,6,0c2.5-0.1,4-1.9,4.1-3.8c0.1-1.7,0-4.8,1-5.2
		c0-0.4,0-0.8,0-1.1c-0.4-0.3-0.8-0.9-0.9-2.4c0-1.5-0.1-2.3-0.1-2.8c0-1.1-1.1-3.9-4.2-3.9C39.9,0.4,37.7,0.4,37,0.4z"/>
	<g>
		<path class="st1" d="M47.8,0.6c0.6,1.3,7.5,17.7,7.9,18.7c0.7,0,3.5,0,4.2,0c0.6-1.4,4.7-11.4,5.1-12.5c0.7,1.6,5,11.8,5.3,12.5
			c1.2,0,3.4,0,4.2,0c1-2.5,5.9-14.2,7.8-18.7c-1.4,0-4.1,0-4.9,0c-0.4,1-4.7,12.1-5.1,13.1c-0.6-1.8-4.6-11.3-5.3-13.1
			c-1,0-2.6,0-3.6,0c-0.6,1.7-4.8,12.2-5.1,13.1c0,0-4.7-11.8-5.2-13.1C51.1,0.6,48.6,0.6,47.8,0.6z"/>
		<path class="st1" d="M82.9,0.6c0.6,1.3,7.5,17.7,7.9,18.7c0.7,0,3.5,0,4.2,0c0.6-1.4,4.7-11.4,5.1-12.5c0.7,1.6,5,11.8,5.3,12.5
			c1.2,0,3.4,0,4.2,0c1-2.5,5.9-14.2,7.8-18.7c-1.4,0-4.1,0-4.9,0c-0.4,1-4.7,12.1-5.1,13.1c-0.6-1.8-4.6-11.3-5.3-13.1
			c-1,0-2.6,0-3.6,0c-0.6,1.7-4.8,12.2-5.1,13.1c0,0-4.7-11.8-5.2-13.1C86.2,0.6,83.7,0.6,82.9,0.6z"/>
		<path class="st1" d="M21.7,4.2c0-0.8-0.1-3.6-4.8-3.6s-15.4,0-16.4,0c0,1.5,0,17.7,0,18.7c1.4,0,4.1,0,4.8,0c0-1,0-5.1,0-5.9
			c1.2,0,11.7,0,12.7,0s3.6-0.3,3.7-3.8C21.9,6.1,21.7,5,21.7,4.2z M17,9c0,0.6-0.5,1-1,1c-2.5,0-9.9,0-10.6,0l0-5.9
			c1.1,0,8.1,0,10.6,0c0.6,0,1,0.5,1,1C17,6.3,17,7.9,17,9z"/>
		<path class="st1" d="M134.8,12.6c2.9,0,4.5-1.7,4.5-3.4c0-1.8,0-3.8,0-5c0-1.7-1.2-3.6-3.8-3.6c-2.6,0-16.3,0-17.3,0
			c0,1.2,0,17.5,0,18.7c1.1,0,3.6,0,4.8,0c0-2.7,0-5.2,0-6.5c1.4,0,6,0,6.8,0c1.1,1.5,3.5,4.9,4.7,6.5c1.2,0,4.5,0,5.5,0
			C139,18.1,135.5,13.6,134.8,12.6z M134.2,8.5c0,0.3-0.3,1.2-1.3,1.2c-0.9,0-9.2,0-10.1,0c0-1,0-4.9,0-5.9c0.9,0,8.8,0,10.1,0
			c0.8,0,1.2,0.6,1.3,1.2C134.2,5.5,134.3,8,134.2,8.5z"/>
	</g>
	<g>
		<g>
			<path class="st1" d="M140.4,3.1c0-0.3,0.1-0.5,0.2-0.8c0.1-0.2,0.3-0.5,0.4-0.6c0.2-0.2,0.4-0.3,0.6-0.4c0.2-0.1,0.5-0.2,0.8-0.2
				s0.5,0.1,0.8,0.2c0.2,0.1,0.5,0.3,0.6,0.4s0.3,0.4,0.4,0.6c0.1,0.2,0.2,0.5,0.2,0.8s-0.1,0.5-0.2,0.8c-0.1,0.2-0.3,0.5-0.4,0.6
				c-0.2,0.2-0.4,0.3-0.6,0.4s-0.5,0.2-0.8,0.2c-0.3,0-0.5-0.1-0.8-0.2c-0.2-0.1-0.5-0.3-0.6-0.4c-0.2-0.2-0.3-0.4-0.4-0.6
				S140.4,3.4,140.4,3.1z M140.7,3.1c0,0.2,0,0.5,0.1,0.7c0.1,0.2,0.2,0.4,0.4,0.5c0.2,0.2,0.3,0.3,0.5,0.4s0.4,0.1,0.7,0.1
				s0.5,0,0.7-0.1c0.2-0.1,0.4-0.2,0.5-0.4c0.2-0.2,0.3-0.3,0.4-0.5c0.1-0.2,0.1-0.4,0.1-0.7s0-0.5-0.1-0.7
				c-0.1-0.2-0.2-0.4-0.4-0.5c-0.2-0.2-0.3-0.3-0.5-0.4c-0.2-0.1-0.4-0.1-0.7-0.1c-0.2,0-0.5,0-0.7,0.1c-0.2,0.1-0.4,0.2-0.5,0.4
				c-0.2,0.2-0.3,0.3-0.4,0.5C140.7,2.7,140.7,2.9,140.7,3.1z M142,4.3h-0.3V2h0.9c0.3,0,0.5,0.1,0.6,0.2c0.1,0.1,0.2,0.3,0.2,0.5
				c0,0.1,0,0.2,0,0.3c0,0.1-0.1,0.1-0.1,0.2c-0.1,0.1-0.1,0.1-0.2,0.1c-0.1,0-0.1,0.1-0.2,0.1l0.7,1h-0.3l-0.7-1H142V4.3L142,4.3z
				 M142,3h0.4c0.1,0,0.2,0,0.2,0c0.1,0,0.2,0,0.2,0c0.1,0,0.1-0.1,0.2-0.1c0-0.1,0.1-0.1,0.1-0.2c0-0.1,0-0.1,0-0.2
				c0,0-0.1-0.1-0.1-0.1c0,0-0.1,0-0.2-0.1c-0.1,0-0.1,0-0.2,0H142V3z"/>
		</g>
	</g>
</g>
</svg>
